<?xml version="1.0" encoding="UTF-8" standalone="no"?>
<!DOCTYPE svg PUBLIC "-//W3C//DTD SVG 1.1//EN" "http://www.w3.org/Graphics/SVG/1.1/DTD/svg11.dtd">
<svg version="1.1" xmlns="http://www.w3.org/2000/svg" xmlns:xlink="http://www.w3.org/1999/xlink" preserveAspectRatio="xMidYMid meet" viewBox="0 0 640 640" width="640" height="640"><defs><path d="M295.82 579.87C295.82 613.06 268.87 640 235.69 640C202.5 640 175.56 613.06 175.56 579.87C175.56 546.68 202.5 519.74 235.69 519.74C268.87 519.74 295.82 546.68 295.82 579.87Z" id="a2Ejv81POK"></path><path d="M278.17 579.87C278.17 603.32 259.13 622.35 235.69 622.35C212.24 622.35 193.2 603.32 193.2 579.87C193.2 556.42 212.24 537.39 235.69 537.39C259.13 537.39 278.17 556.42 278.17 579.87Z" id="eyxECj9s5"></path><path d="M278.17 368.1L295.82 368.1L295.82 640L278.17 640L278.17 368.1Z" id="a7ZbHyB3F"></path><path d="M397.82 578.89L436.99 539.72L415.06 517.78L375.88 556.95L336.71 517.78L314.77 539.72L353.95 578.89L314.77 618.06L336.71 640L375.88 600.83L415.06 640L436.99 618.06L397.82 578.89Z" id="b3h175kWpX"></path><path d="M295.82 211.76C295.82 244.95 268.87 271.9 235.69 271.9C202.5 271.9 175.56 244.95 175.56 211.76C175.56 178.58 202.5 151.63 235.69 151.63C268.87 151.63 295.82 178.58 295.82 211.76Z" id="dXXDUX85"></path><path d="M278.17 211.76C278.17 235.21 259.13 254.25 235.69 254.25C212.24 254.25 193.2 235.21 193.2 211.76C193.2 188.32 212.24 169.28 235.69 169.28C259.13 169.28 278.17 188.32 278.17 211.76Z" id="eLGNjTHJu"></path><path d="M278.17 0L295.82 0L295.82 271.9L278.17 271.9L278.17 0Z" id="b8ILfUkT29"></path><path d="M114.44 300.07L515.1 300.07L515.1 331.44L114.44 331.44L114.44 300.07Z" id="dan3ROzXX"></path></defs><g><g><g><use xlink:href="#a2Ejv81POK" opacity="1" fill="#000000" fill-opacity="1"></use></g><g><use xlink:href="#eyxECj9s5" opacity="1" fill="#ffffff" fill-opacity="1"></use></g><g><use xlink:href="#a7ZbHyB3F" opacity="1" fill="#000000" fill-opacity="1"></use></g><g><use xlink:href="#b3h175kWpX" opacity="1" fill="#000000" fill-opacity="1"></use></g><g><use xlink:href="#dXXDUX85" opacity="1" fill="#000000" fill-opacity="1"></use></g><g><use xlink:href="#eLGNjTHJu" opacity="1" fill="#ffffff" fill-opacity="1"></use></g><g><use xlink:href="#b8ILfUkT29" opacity="1" fill="#000000" fill-opacity="1"></use></g><g><use xlink:href="#dan3ROzXX" opacity="1" fill="#000000" fill-opacity="1"></use></g></g></g></svg>