<?xml version="1.0" encoding="UTF-8" standalone="no"?>
<!DOCTYPE svg PUBLIC "-//W3C//DTD SVG 1.1//EN" "http://www.w3.org/Graphics/SVG/1.1/DTD/svg11.dtd">
<svg version="1.1" xmlns="http://www.w3.org/2000/svg" xmlns:xlink="http://www.w3.org/1999/xlink" preserveAspectRatio="xMidYMid meet" viewBox="0 0 640 640" width="640" height="640"><defs><path d="M221.25 111.46L182.04 484.57L154.09 481.63C174.9 283.69 187.9 159.98 193.1 110.5C193.22 109.41 194.19 108.61 195.29 108.73C198.75 109.09 207.4 110 221.25 111.46Z" id="e1IfdsFFq7"></path><path d="M252.68 111.5C252.68 127.56 239.35 140.59 222.94 140.59C206.53 140.59 193.2 127.56 193.2 111.5C193.2 95.45 206.53 82.42 222.94 82.42C239.35 82.42 252.68 95.45 252.68 111.5Z" id="a5EWMNBqfF"></path><path d="M181.87 484.57C181.87 500.62 168.55 513.65 152.13 513.65C135.72 513.65 122.4 500.62 122.4 484.57C122.4 468.51 135.72 455.48 152.13 455.48C168.55 455.48 181.87 468.51 181.87 484.57Z" id="a4e9PPDDJd"></path><path d="M389.28 439.93C389.28 473.12 362.34 500.07 329.15 500.07C295.96 500.07 269.02 473.12 269.02 439.93C269.02 406.75 295.96 379.8 329.15 379.8C362.34 379.8 389.28 406.75 389.28 439.93Z" id="l3sEVd28fm"></path><path d="M371.63 439.93C371.63 463.38 352.6 482.42 329.15 482.42C305.7 482.42 286.67 463.38 286.67 439.93C286.67 416.49 305.7 397.45 329.15 397.45C352.6 397.45 371.63 416.49 371.63 439.93Z" id="cgM7GlKz1"></path><path d="M371.63 228.17L389.28 228.17L389.28 500.07L371.63 500.07L371.63 228.17Z" id="dIaDulfky"></path><path d="M491.28 438.95L530.46 399.78L508.52 377.84L469.35 417.02L430.17 377.84L408.24 399.78L447.41 438.95L408.24 478.13L430.17 500.07L469.35 460.89L508.52 500.07L530.46 478.13L491.28 438.95Z" id="aiphol2Qa"></path></defs><g><g><g><use xlink:href="#e1IfdsFFq7" opacity="1" fill="#000000" fill-opacity="1"></use></g><g><use xlink:href="#a5EWMNBqfF" opacity="1" fill="#000000" fill-opacity="1"></use></g><g><use xlink:href="#a4e9PPDDJd" opacity="1" fill="#000000" fill-opacity="1"></use></g><g><use xlink:href="#l3sEVd28fm" opacity="1" fill="#000000" fill-opacity="1"></use></g><g><use xlink:href="#cgM7GlKz1" opacity="1" fill="#ffffff" fill-opacity="1"></use></g><g><use xlink:href="#dIaDulfky" opacity="1" fill="#000000" fill-opacity="1"></use></g><g><use xlink:href="#aiphol2Qa" opacity="1" fill="#000000" fill-opacity="1"></use></g></g></g></svg>