<?xml version="1.0" encoding="UTF-8" standalone="no"?>
<!DOCTYPE svg PUBLIC "-//W3C//DTD SVG 1.1//EN" "http://www.w3.org/Graphics/SVG/1.1/DTD/svg11.dtd">
<svg version="1.1" xmlns="http://www.w3.org/2000/svg" xmlns:xlink="http://www.w3.org/1999/xlink" preserveAspectRatio="xMidYMid meet" viewBox="0 0 640 640" width="640" height="640"><defs><path d="M398.17 171.53L596.21 171.53L596.21 369.57L398.17 369.57L398.17 171.53Z" id="e1xZLk1kGe"></path><path d="M38.3 96.14L72.94 96.14L72.94 369.57L38.3 369.57L38.3 96.14Z" id="a1c09J25SX"></path><path d="M118.24 205.95L152.88 205.95L152.88 369.57L118.24 369.57L118.24 205.95Z" id="bb2qTEli"></path><path d="M189.02 270.55L223.66 270.55L223.66 369.57L189.02 369.57L189.02 270.55Z" id="a5I1MEO1sr"></path><path d="M267.65 270.55L302.29 270.55L302.29 369.57L267.65 369.57L267.65 270.55Z" id="b589ICNQYf"></path><path d="M302.29 272.24C302.29 309.91 276.91 340.49 245.65 340.49C214.4 340.49 189.02 309.91 189.02 272.24C189.02 234.57 214.4 203.99 245.65 203.99C276.91 203.99 302.29 234.57 302.29 272.24Z" id="daznPTzkXi"></path><path d="M267.87 268.75C267.87 283.45 257.96 295.39 245.76 295.39C233.56 295.39 223.66 283.45 223.66 268.75C223.66 254.05 233.56 242.11 245.76 242.11C257.96 242.11 267.87 254.05 267.87 268.75Z" id="e2gtwozhO"></path><path d="M223.66 270.55L267.65 270.55L267.65 369.57L223.66 369.57L223.66 270.55Z" id="a25GunqaNs"></path><path d="M268.26 270.55L302.9 270.55L302.9 369.57L268.26 369.57L268.26 270.55Z" id="bWUHu3Si"></path><path d="M346.89 270.55L381.53 270.55L381.53 369.57L346.89 369.57L346.89 270.55Z" id="bbdmw6UyG"></path><path d="M381.53 272.24C381.53 309.91 356.15 340.49 324.9 340.49C293.64 340.49 268.26 309.91 268.26 272.24C268.26 234.57 293.64 203.99 324.9 203.99C356.15 203.99 381.53 234.57 381.53 272.24Z" id="c53jraD2Kv"></path><path d="M346.5 268.75C346.5 283.45 336.59 295.39 324.39 295.39C312.19 295.39 302.29 283.45 302.29 268.75C302.29 254.05 312.19 242.11 324.39 242.11C336.59 242.11 346.5 254.05 346.5 268.75Z" id="c3uPH9isQG"></path><path d="M302.9 270.55L346.89 270.55L346.89 369.57L302.9 369.57L302.9 270.55Z" id="d2jKKrCW2i"></path><path d="M157.66 157.84C157.66 172.54 147.76 184.47 135.56 184.47C123.36 184.47 113.45 172.54 113.45 157.84C113.45 143.13 123.36 131.2 135.56 131.2C147.76 131.2 157.66 143.13 157.66 157.84Z" id="aW0ixj37s"></path><path d="M92.73 435.36L117.18 460.5L103.49 474.58L79.05 449.44L54.6 474.58L40.92 460.5L65.36 435.36L40.92 410.22L54.6 396.14L79.05 421.28L103.49 396.14L117.18 410.22L92.73 435.36Z" id="c292M7EGS5"></path><path d="M184.59 451.87L232.07 433.3L184.59 414.72L184.59 426.5L134.24 426.5L134.24 440.13L184.59 440.13L184.59 451.87Z" id="b5xt23A1rp"></path><path d="M320.85 436.73C320.85 455.34 302.63 470.45 280.18 470.45C257.74 470.45 239.51 455.34 239.51 436.73C239.51 418.12 257.74 403.01 280.18 403.01C302.63 403.01 320.85 418.12 320.85 436.73Z" id="fGpcoVsQd"></path><path d="M296.14 435C296.14 442.27 289.02 448.17 280.26 448.17C271.5 448.17 264.39 442.27 264.39 435C264.39 427.74 271.5 421.84 280.26 421.84C289.02 421.84 296.14 427.74 296.14 435Z" id="cF6346lvM"></path><path d="M377.76 436.73C377.76 455.34 359.53 470.45 337.09 470.45C314.64 470.45 296.42 455.34 296.42 436.73C296.42 418.12 314.64 403.01 337.09 403.01C359.53 403.01 377.76 418.12 377.76 436.73Z" id="a3khWLHPlU"></path><path d="M352.6 435C352.6 442.27 345.49 448.17 336.73 448.17C327.97 448.17 320.85 442.27 320.85 435C320.85 427.74 327.97 421.84 336.73 421.84C345.49 421.84 352.6 427.74 352.6 435Z" id="b1DITxjuy8"></path></defs><g><g><g><use xlink:href="#e1xZLk1kGe" opacity="1" fill="#0000ff" fill-opacity="1"></use></g><g><use xlink:href="#a1c09J25SX" opacity="1" fill="#000000" fill-opacity="1"></use></g><g><use xlink:href="#bb2qTEli" opacity="1" fill="#000000" fill-opacity="1"></use></g><g><use xlink:href="#a5I1MEO1sr" opacity="1" fill="#000000" fill-opacity="1"></use></g><g><use xlink:href="#b589ICNQYf" opacity="1" fill="#000000" fill-opacity="1"></use></g><g><use xlink:href="#daznPTzkXi" opacity="1" fill="#000000" fill-opacity="1"></use></g><g><use xlink:href="#e2gtwozhO" opacity="1" fill="#fcfcfc" fill-opacity="1"></use></g><g><use xlink:href="#a25GunqaNs" opacity="1" fill="#ffffff" fill-opacity="1"></use></g><g><use xlink:href="#bWUHu3Si" opacity="1" fill="#000000" fill-opacity="1"></use></g><g><use xlink:href="#bbdmw6UyG" opacity="1" fill="#000000" fill-opacity="1"></use></g><g><use xlink:href="#c53jraD2Kv" opacity="1" fill="#000000" fill-opacity="1"></use></g><g><use xlink:href="#c3uPH9isQG" opacity="1" fill="#fcfcfc" fill-opacity="1"></use></g><g><use xlink:href="#d2jKKrCW2i" opacity="1" fill="#ffffff" fill-opacity="1"></use></g><g><use xlink:href="#aW0ixj37s" opacity="1" fill="#000000" fill-opacity="1"></use></g><g><use xlink:href="#c292M7EGS5" opacity="1" fill="#000000" fill-opacity="1"></use></g><g><use xlink:href="#b5xt23A1rp" opacity="1" fill="#0c0701" fill-opacity="1"></use></g><g><use xlink:href="#fGpcoVsQd" opacity="1" fill="#000000" fill-opacity="1"></use></g><g><use xlink:href="#cF6346lvM" opacity="1" fill="#fcfcfc" fill-opacity="1"></use></g><g><use xlink:href="#a3khWLHPlU" opacity="1" fill="#000000" fill-opacity="1"></use></g><g><use xlink:href="#b1DITxjuy8" opacity="1" fill="#fcfcfc" fill-opacity="1"></use></g></g></g></svg>