<?xml version="1.0" encoding="UTF-8" standalone="no"?>
<!DOCTYPE svg PUBLIC "-//W3C//DTD SVG 1.1//EN" "http://www.w3.org/Graphics/SVG/1.1/DTD/svg11.dtd">
<svg version="1.1" xmlns="http://www.w3.org/2000/svg" xmlns:xlink="http://www.w3.org/1999/xlink" preserveAspectRatio="xMidYMid meet" viewBox="0 0 640 640" width="640" height="640"><defs><path d="M88.63 54.31L125.88 54.31L125.88 571.96L88.63 571.96L88.63 54.31Z" id="a2FDrFChD"></path><path d="M528.69 54.31L565.95 54.31L565.95 571.96L528.69 571.96L528.69 54.31Z" id="ehkRSwPWV"></path><path d="M88.63 54.31L260.52 54.31L260.52 83.07L88.63 83.07L88.63 54.31Z" id="aDEbEA6xv"></path><path d="M88.63 543.2L260.52 543.2L260.52 571.96L88.63 571.96L88.63 543.2Z" id="ekxjAYZ3q"></path><path d="M394.05 54.31L565.95 54.31L565.95 83.07L394.05 83.07L394.05 54.31Z" id="ajZrUVlh"></path><path d="M394.05 543.2L565.95 543.2L565.95 571.96L394.05 571.96L394.05 543.2Z" id="eAl4vg9Bv"></path></defs><g><g><g><use xlink:href="#a2FDrFChD" opacity="1" fill="#000000" fill-opacity="1"></use></g><g><use xlink:href="#ehkRSwPWV" opacity="1" fill="#000000" fill-opacity="1"></use></g><g><use xlink:href="#aDEbEA6xv" opacity="1" fill="#000000" fill-opacity="1"></use></g><g><use xlink:href="#ekxjAYZ3q" opacity="1" fill="#000000" fill-opacity="1"></use></g><g><use xlink:href="#ajZrUVlh" opacity="1" fill="#000000" fill-opacity="1"></use></g><g><use xlink:href="#eAl4vg9Bv" opacity="1" fill="#000000" fill-opacity="1"></use></g></g></g></svg>