<?xml version="1.0" encoding="UTF-8" standalone="no"?>
<!DOCTYPE svg PUBLIC "-//W3C//DTD SVG 1.1//EN" "http://www.w3.org/Graphics/SVG/1.1/DTD/svg11.dtd">
<svg version="1.1" xmlns="http://www.w3.org/2000/svg" xmlns:xlink="http://www.w3.org/1999/xlink" preserveAspectRatio="xMidYMid meet" viewBox="0 0 640 640" width="640" height="640"><defs><path d="M10.2 360.2L149.41 360.2L149.41 392.88L10.2 392.88L10.2 360.2Z" id="b1oTSAktsb"></path><path d="M149.01 360.2L220.25 626.08L188.69 634.53L117.44 368.65L149.01 360.2Z" id="dH9VTIu1B"></path><path d="M316.98 86.72L220.71 632.67L188.53 626.99L284.79 81.05L316.98 86.72Z" id="a1lNRHZQSs"></path><path d="M284.25 81.05L626.27 81.05L626.27 113.73L284.25 113.73L284.25 81.05Z" id="c30kQleNyj"></path><path d="M188.53 601.85L221.21 601.85L221.21 634.53L188.53 634.53L188.53 601.85Z" id="h1yDrdIIwo"></path><path d="M65.75 111.77L189.93 111.77L189.93 235.95L65.75 235.95L65.75 111.77Z" id="a4AGSf1JHL"></path><path d="M525.99 409.51L621.31 506.1L567.93 560.2L472.61 463.6L377.3 560.2L323.92 506.1L419.24 409.51L323.92 312.92L377.3 258.82L472.61 355.42L567.93 258.82L621.31 312.92L525.99 409.51Z" id="g6jqiBGFy3"></path></defs><g><g><g><use xlink:href="#b1oTSAktsb" opacity="1" fill="#000000" fill-opacity="1"></use></g><g><use xlink:href="#dH9VTIu1B" opacity="1" fill="#000000" fill-opacity="1"></use></g><g><use xlink:href="#a1lNRHZQSs" opacity="1" fill="#000000" fill-opacity="1"></use></g><g><use xlink:href="#c30kQleNyj" opacity="1" fill="#000000" fill-opacity="1"></use></g><g><use xlink:href="#h1yDrdIIwo" opacity="1" fill="#000000" fill-opacity="1"></use></g><g><use xlink:href="#a4AGSf1JHL" opacity="1" fill="#0000ff" fill-opacity="1"></use></g><g><use xlink:href="#g6jqiBGFy3" opacity="1" fill="#000000" fill-opacity="1"></use></g></g></g></svg>