<?xml version="1.0" encoding="UTF-8" standalone="no"?>
<!DOCTYPE svg PUBLIC "-//W3C//DTD SVG 1.1//EN" "http://www.w3.org/Graphics/SVG/1.1/DTD/svg11.dtd">
<svg version="1.1" xmlns="http://www.w3.org/2000/svg" xmlns:xlink="http://www.w3.org/1999/xlink" preserveAspectRatio="xMidYMid meet" viewBox="0 0 640 640" width="640" height="640"><defs><path d="M146.11 320L215.03 388.92L176.44 427.52L107.52 358.6L38.6 427.52L0 388.92L68.92 320L0 251.08L38.6 212.48L107.52 281.4L176.44 212.48L215.03 251.08L146.11 320Z" id="e37spAuGU"></path><path d="M264.58 203.85L368.64 378.79L330.84 399.97L226.78 225.03L264.58 203.85Z" id="g4mgnw7Ul"></path><path d="M463.09 225.03L282.77 528.17L244.97 506.99L425.29 203.85L463.09 225.03Z" id="baynAwVyf"></path><path d="M470.3 212.48L636.79 212.48L636.79 254.06L470.3 254.06L470.3 212.48Z" id="eqhhq7kzn"></path><path d="M473.51 388.49L640 388.49L640 430.06L473.51 430.06L473.51 388.49Z" id="d27tCDUg9m"></path><path d="M636.79 253.49L498.2 418.5L473.51 389.1L612.1 224.09L636.79 253.49Z" id="flCLPrnBv"></path></defs><g><g><g><use xlink:href="#e37spAuGU" opacity="1" fill="#000000" fill-opacity="1"></use></g><g><g><use xlink:href="#g4mgnw7Ul" opacity="1" fill="#000000" fill-opacity="1"></use></g><g><use xlink:href="#baynAwVyf" opacity="1" fill="#000000" fill-opacity="1"></use></g></g><g><g><use xlink:href="#eqhhq7kzn" opacity="1" fill="#000000" fill-opacity="1"></use></g><g><use xlink:href="#d27tCDUg9m" opacity="1" fill="#000000" fill-opacity="1"></use></g><g><use xlink:href="#flCLPrnBv" opacity="1" fill="#000000" fill-opacity="1"></use></g></g></g></g></svg>