<svg id="svg" xmlns="http://www.w3.org/2000/svg" xmlns:xlink="http://www.w3.org/1999/xlink" width="400" height="637.5634517766498" viewBox="0, 0, 400,637.5634517766498"><g id="svgg"><path id="path0" d="M136.041 2.523 L 130.964 5.194 130.420 54.515 L 129.876 103.837 122.299 97.874 C 85.563 68.967,35.971 79.621,15.529 120.812 C -0.848 153.811,-1.269 211.277,14.637 242.456 C 36.583 285.473,89.515 293.026,127.801 258.603 L 138.071 249.370 138.071 261.791 C 138.071 273.466,138.407 274.342,143.655 276.366 C 151.601 279.431,176.397 277.788,178.768 274.039 C 182.568 268.032,181.202 6.997,177.355 3.802 C 172.694 -0.068,142.728 -0.996,136.041 2.523 M102.560 126.782 C 106.409 128.390,114.147 133.998,119.754 139.243 L 129.949 148.779 129.949 180.070 L 129.949 211.361 119.785 221.525 C 90.986 250.324,61.710 239.822,54.685 198.172 C 46.435 149.262,70.495 113.384,102.560 126.782 M0.000 320.812 L 0.000 351.269 200.000 351.269 L 400.000 351.269 400.000 320.812 L 400.000 290.355 200.000 290.355 L 0.000 290.355 0.000 320.812 M136.041 357.853 L 130.964 360.524 130.420 409.845 L 129.876 459.167 122.299 453.204 C 85.563 424.296,35.971 434.951,15.529 476.142 C -0.848 509.141,-1.269 566.607,14.637 597.785 C 36.583 640.803,89.515 648.356,127.801 613.933 L 138.071 604.700 138.071 617.121 C 138.071 628.796,138.407 629.672,143.655 631.696 C 151.601 634.761,176.397 633.117,178.768 629.369 C 182.568 623.362,181.202 362.327,177.355 359.132 C 172.694 355.262,142.728 354.334,136.041 357.853 M219.797 440.672 C 213.124 443.355,213.144 443.409,238.760 490.561 L 262.292 533.876 237.836 578.105 C 224.385 602.432,212.789 623.921,212.067 625.860 C 210.182 630.922,218.447 633.503,236.548 633.503 C 259.801 633.503,259.308 633.931,278.355 597.088 C 287.630 579.146,295.723 564.486,296.340 564.509 C 296.957 564.532,304.825 578.922,313.824 596.488 C 332.749 633.428,332.752 633.430,357.736 633.473 C 392.055 633.531,391.910 636.459,360.440 578.901 L 335.092 532.542 358.409 489.628 C 387.271 436.507,387.247 438.554,359.017 438.606 C 336.157 438.649,337.435 437.600,319.904 470.709 C 311.226 487.098,303.422 501.266,302.561 502.192 C 301.701 503.118,293.592 489.752,284.542 472.488 C 272.232 449.007,266.928 440.790,263.485 439.867 C 256.526 438.002,224.994 438.584,219.797 440.672 M102.560 482.112 C 106.409 483.720,114.147 489.327,119.754 494.573 L 129.949 504.109 129.949 535.400 L 129.949 566.691 119.785 576.855 C 90.986 605.654,61.710 595.152,54.685 553.502 C 46.435 504.592,70.495 468.714,102.560 482.112 " stroke="none" fill="#000000" fill-rule="evenodd"></path></g></svg>