<svg id="svg" xmlns="http://www.w3.org/2000/svg" xmlns:xlink="http://www.w3.org/1999/xlink" width="400" height="693.1297709923664" viewBox="0, 0, 400,693.1297709923664"><g id="svgg"><path id="path0" d="M106.019 31.824 C 88.283 36.586,77.456 46.045,69.515 63.713 C 62.360 79.632,66.694 87.812,80.454 84.358 C 91.539 81.576,94.188 70.546,85.468 63.485 C 77.196 56.787,81.535 49.826,99.212 41.438 C 145.786 19.337,179.633 67.636,162.014 131.053 L 158.264 144.548 152.654 132.019 C 124.459 69.042,13.238 145.181,31.047 215.267 C 46.486 276.024,121.765 269.093,160.283 203.367 C 213.850 111.962,182.043 11.409,106.019 31.824 M136.743 120.796 C 175.772 148.133,135.566 247.328,85.456 247.328 C 49.554 247.328,40.912 209.545,64.514 155.763 C 79.098 122.532,114.649 105.321,136.743 120.796 M18.321 381.679 C 18.321 387.717,20.356 387.786,196.947 387.786 C 373.537 387.786,375.573 387.717,375.573 381.679 C 375.573 375.642,373.537 375.573,196.947 375.573 C 20.356 375.573,18.321 375.642,18.321 381.679 M100.672 458.779 C 72.250 473.137,58.757 516.884,85.353 508.442 C 96.445 504.922,100.167 485.496,89.750 485.496 C 75.233 485.496,93.978 466.185,113.631 460.893 C 156.873 449.249,181.571 491.107,167.480 552.155 L 163.968 567.371 157.556 554.678 C 129.656 499.441,35.115 552.290,35.115 623.124 C 35.115 697.282,122.967 698.836,165.981 625.438 C 221.824 530.150,178.456 419.483,100.672 458.779 M143.220 545.261 C 183.666 579.295,131.612 681.699,79.665 670.290 C 52.729 664.373,49.023 618.955,71.812 574.046 C 88.291 541.571,122.464 527.796,143.220 545.261 M245.279 543.332 C 235.220 549.465,219.847 572.346,219.847 581.184 C 219.847 590.324,224.320 586.498,230.119 572.398 C 236.809 556.130,251.856 543.511,264.563 543.511 C 283.485 543.511,285.155 555.966,272.999 606.409 C 260.021 660.262,254.752 668.702,234.109 668.702 C 222.322 668.702,222.115 668.525,227.253 662.847 C 238.900 649.978,226.253 634.477,213.513 646.007 C 199.840 658.381,211.520 674.809,233.991 674.809 C 246.009 674.809,249.564 673.303,257.655 664.780 L 267.176 654.751 275.873 664.780 C 293.772 685.418,326.257 675.104,342.280 643.696 C 351.510 625.603,345.487 623.141,335.714 641.012 C 324.591 661.354,315.795 668.474,301.634 668.601 C 281.033 668.785,279.655 657.966,293.361 603.638 C 306.165 552.885,312.356 543.511,333.074 543.511 C 343.206 543.511,343.968 545.018,337.242 551.744 C 330.444 558.542,332.816 569.248,341.389 570.463 C 350.959 571.820,357.252 565.894,357.252 555.524 C 357.252 535.252,328.031 530.717,308.882 548.017 L 297.135 558.629 293.270 551.408 C 285.531 536.946,262.192 533.019,245.279 543.332 " stroke="none" fill="#000000" fill-rule="evenodd"></path></g></svg>