<svg id="svg" xmlns="http://www.w3.org/2000/svg" xmlns:xlink="http://www.w3.org/1999/xlink" width="400" height="378.60465116279073" viewBox="0, 0, 400,378.60465116279073"><g id="svgg"><path id="path0" d="M175.825 19.807 C 170.402 21.282,165.999 25.256,164.140 30.353 C 162.899 33.755,162.197 69.709,163.221 77.403 C 164.395 86.228,169.549 91.614,178.140 92.995 C 181.936 93.606,218.307 93.646,221.983 93.044 C 228.227 92.021,233.158 88.380,235.730 82.892 L 236.977 80.233 236.977 56.512 C 236.977 34.166,236.924 32.649,236.073 30.354 C 234.292 25.554,230.162 21.608,225.123 19.892 C 222.442 18.978,179.143 18.904,175.825 19.807 M29.535 149.328 C 22.522 150.264,17.587 154.287,15.367 160.875 C 14.413 163.708,14.390 164.429,14.519 187.137 L 14.651 210.486 16.177 213.585 C 18.033 217.354,21.306 220.450,25.022 221.952 L 27.674 223.023 198.372 223.160 C 324.367 223.260,369.797 223.158,371.845 222.768 C 378.862 221.431,383.502 217.017,385.351 209.916 C 386.176 206.749,386.379 167.463,385.592 163.312 C 384.142 155.664,378.545 150.494,370.451 149.324 C 366.526 148.757,33.783 148.760,29.535 149.328 M175.921 279.780 C 168.963 281.683,164.318 287.008,163.265 294.289 C 162.665 298.436,162.676 333.727,163.278 337.893 C 164.518 346.476,170.028 351.894,178.657 353.014 C 183.211 353.605,217.488 353.598,221.590 353.005 C 228.212 352.048,233.064 348.577,235.730 342.893 L 236.977 340.233 237.117 317.549 C 237.305 287.314,236.535 284.698,226.128 280.235 C 223.229 278.991,180.230 278.602,175.921 279.780 " stroke="none" fill="#000000" fill-rule="evenodd"></path></g></svg>