<svg id="svg" xmlns="http://www.w3.org/2000/svg" xmlns:xlink="http://www.w3.org/1999/xlink" width="400" height="180.45112781954887" viewBox="0, 0, 400,180.45112781954887"><g id="svgg"><path id="path0" d="M292.231 46.517 C 281.386 51.296,280.702 54.108,280.702 93.887 C 280.702 132.388,280.890 133.420,288.923 138.986 L 293.063 141.855 329.739 141.855 L 366.416 141.855 370.041 139.401 C 378.522 133.661,378.408 134.228,378.748 96.316 C 379.129 53.914,378.715 52.111,367.427 46.982 C 362.198 44.607,297.473 44.206,292.231 46.517 M27.569 47.519 C 16.725 52.299,16.040 55.111,16.040 94.889 C 16.040 133.390,16.228 134.423,24.261 139.988 L 28.401 142.857 65.078 142.857 L 101.754 142.857 105.379 140.404 C 113.861 134.664,113.746 135.230,114.087 97.318 C 114.468 54.917,114.054 53.113,102.765 47.985 C 97.537 45.609,32.812 45.209,27.569 47.519 M138.346 75.188 C 137.243 76.291,136.341 78.095,136.341 79.198 C 136.341 85.367,134.801 85.213,196.491 85.213 C 258.181 85.213,256.642 85.367,256.642 79.198 C 256.642 78.095,255.739 76.291,254.637 75.188 C 251.495 72.046,141.488 72.046,138.346 75.188 M138.346 111.278 C 137.243 112.381,136.341 114.185,136.341 115.288 C 136.341 121.457,134.801 121.303,196.491 121.303 C 258.181 121.303,256.642 121.457,256.642 115.288 C 256.642 114.185,255.739 112.381,254.637 111.278 C 251.495 108.136,141.488 108.136,138.346 111.278 " stroke="none" fill="#000000" fill-rule="evenodd"></path></g></svg>