<svg id="svg" xmlns="http://www.w3.org/2000/svg" xmlns:xlink="http://www.w3.org/1999/xlink" width="400" height="147.53661784287618" viewBox="0, 0, 400,147.53661784287618"><g id="svgg"><path id="path0" d="M253.529 73.768 L 253.529 146.471 326.232 146.471 L 398.935 146.471 398.935 73.768 L 398.935 1.065 326.232 1.065 L 253.529 1.065 253.529 73.768 M2.663 75.100 L 2.663 147.537 75.366 147.537 L 148.069 147.537 148.069 75.100 L 148.069 2.663 75.366 2.663 L 2.663 2.663 2.663 75.100 M161.385 54.328 L 161.385 63.382 201.065 63.382 L 240.746 63.382 240.746 54.328 L 240.746 45.273 201.065 45.273 L 161.385 45.273 161.385 54.328 M161.385 92.676 L 161.385 101.731 201.065 101.731 L 240.746 101.731 240.746 92.676 L 240.746 83.622 201.065 83.622 L 161.385 83.622 161.385 92.676 " stroke="none" fill="#000000" fill-rule="evenodd"></path></g></svg>