<svg id="svg" xmlns="http://www.w3.org/2000/svg" xmlns:xlink="http://www.w3.org/1999/xlink" width="400" height="305.7142857142857" viewBox="0, 0, 400,305.7142857142857"><g id="svgg"><path id="path0" d="M0.000 152.857 L 0.000 305.714 200.000 305.714 L 400.000 305.714 400.000 292.857 L 400.000 280.000 211.429 280.000 L 22.857 280.000 22.857 140.000 L 22.857 0.000 11.429 0.000 L 0.000 0.000 0.000 152.857 M315.740 139.953 L 232.909 222.842 189.307 179.308 L 145.705 135.774 85.710 195.719 C 28.893 252.488,25.714 256.232,25.714 266.403 C 25.714 288.878,35.757 282.752,93.540 225.032 L 145.709 172.921 189.309 216.453 L 232.909 259.985 316.605 176.252 L 400.301 92.520 399.436 74.792 L 398.571 57.064 315.740 139.953 " stroke="none" fill="#000000" fill-rule="evenodd"></path></g></svg>