<svg id="svg" xmlns="http://www.w3.org/2000/svg" xmlns:xlink="http://www.w3.org/1999/xlink" width="400" height="400" viewBox="0, 0, 400,400"><g id="svgg"><path id="path0" d="M6.323 41.284 C 3.868 44.789,3.556 63.178,3.556 203.951 L 3.556 362.667 197.292 362.667 L 391.029 362.667 393.863 358.341 C 396.068 354.977,396.260 353.200,394.730 350.341 L 392.764 346.667 207.049 346.667 L 21.333 346.667 21.333 195.951 C 21.333 33.600,21.543 37.333,12.444 37.333 C 10.600 37.333,7.845 39.111,6.323 41.284 M354.666 129.779 L 338.739 145.780 323.134 130.247 L 307.528 114.714 248.422 173.800 L 189.316 232.886 162.217 205.787 L 135.118 178.688 93.337 220.441 C 51.845 261.905,48.982 265.617,54.349 270.984 C 59.596 276.231,62.947 273.744,99.030 237.817 L 135.147 201.857 162.256 228.923 L 189.364 255.989 247.993 197.340 L 306.621 138.692 321.790 153.790 C 330.133 162.095,337.784 168.889,338.793 168.889 C 342.220 168.889,384.000 125.120,384.000 121.530 C 384.000 108.172,373.130 111.228,354.666 129.779 " stroke="none" fill="#000000" fill-rule="evenodd"></path></g></svg>