<svg id="svg" xmlns="http://www.w3.org/2000/svg" xmlns:xlink="http://www.w3.org/1999/xlink" width="400" height="574.7899159663865" viewBox="0, 0, 400,574.7899159663865"><g id="svgg"><path id="path0" d="M283.509 8.135 C 236.887 29.843,229.066 50.703,156.485 346.922 C 119.642 497.289,116.786 505.071,97.749 506.953 C 83.095 508.403,73.474 501.318,63.678 481.863 C 50.990 456.665,44.351 450.420,30.252 450.420 C -8.398 450.420,-3.625 501.950,38.600 540.541 C 90.947 588.383,160.503 563.515,179.363 490.217 C 182.379 478.497,204.270 390.096,228.010 293.770 C 271.256 118.299,282.119 83.715,299.957 64.706 C 314.881 48.803,332.305 60.596,337.788 90.312 C 344.715 127.857,393.277 126.672,393.277 88.958 C 393.277 26.505,335.471 -16.059,283.509 8.135 " stroke="none" fill="#000000" fill-rule="evenodd"></path></g></svg>