<svg id="svg" xmlns="http://www.w3.org/2000/svg" xmlns:xlink="http://www.w3.org/1999/xlink" width="400" height="97.5609756097561" viewBox="0, 0, 400,97.5609756097561"><g id="svgg"><path id="path0" d="M0.000 2.877 C 0.000 4.460,1.889 7.344,4.198 9.287 C 6.507 11.230,14.718 21.628,22.445 32.394 C 39.153 55.675,39.718 51.580,16.479 75.631 C -4.807 97.659,-4.811 97.561,17.422 97.561 C 34.589 97.561,34.843 97.515,34.843 94.407 C 34.843 92.473,33.630 90.721,31.707 89.878 C 26.038 87.390,26.977 82.141,34.851 72.311 C 43.771 61.175,42.797 61.244,49.913 71.246 C 59.382 84.555,59.858 86.177,55.353 89.769 C 46.800 96.589,49.282 97.561,75.261 97.561 L 98.955 97.561 98.955 94.377 C 98.955 92.362,97.511 90.340,95.020 88.869 C 90.892 86.430,60.801 45.396,61.574 43.259 C 62.950 39.456,92.581 8.266,95.518 7.529 C 97.973 6.913,98.955 5.714,98.955 3.333 L 98.955 0.000 80.139 0.000 L 61.324 0.000 61.324 3.333 C 61.324 5.682,62.304 6.912,64.642 7.499 C 71.394 9.194,70.061 15.573,60.524 27.213 C 54.081 35.075,54.625 35.203,46.917 24.023 C 39.745 13.621,39.051 10.633,43.206 8.039 C 44.739 7.081,45.993 4.881,45.993 3.149 C 45.993 0.007,45.944 0.000,22.997 0.000 C 0.689 0.000,0.000 0.086,0.000 2.877 M199.588 14.340 L 195.205 18.862 205.761 30.685 L 216.317 42.509 157.636 42.872 L 98.955 43.236 98.955 50.871 L 98.955 58.506 157.741 58.870 L 216.527 59.233 208.332 68.293 C 193.450 84.745,194.464 82.440,199.820 87.630 L 204.503 92.170 223.506 74.460 C 249.246 50.470,249.209 51.346,225.436 29.165 C 202.298 7.576,204.770 8.994,199.588 14.340 M273.509 14.531 C 245.264 27.394,241.664 69.663,267.309 87.330 C 285.389 99.785,314.691 92.134,324.449 72.411 L 327.158 66.937 331.871 74.886 C 357.566 118.212,416.119 80.358,395.232 33.924 C 382.444 5.496,343.317 4.759,326.905 32.636 L 323.691 38.095 321.923 34.727 C 312.920 17.577,288.860 7.540,273.509 14.531 M303.463 30.153 C 306.349 32.460,310.709 37.292,313.151 40.891 L 317.592 47.435 312.813 55.888 C 298.337 81.499,278.487 86.423,269.560 66.616 C 257.389 39.610,282.075 13.059,303.463 30.153 M374.267 31.264 C 386.936 39.565,385.290 69.824,371.721 78.098 C 361.008 84.630,347.294 79.567,338.609 65.872 C 333.611 57.991,333.592 57.437,338.028 48.684 C 347.519 29.954,361.795 23.092,374.267 31.264 " stroke="none" fill="#000000" fill-rule="evenodd"></path></g></svg>