<svg id="svg" xmlns="http://www.w3.org/2000/svg" xmlns:xlink="http://www.w3.org/1999/xlink" width="400" height="284.11214953271025" viewBox="0, 0, 400,284.11214953271025"><g id="svgg"><path id="path0" d="M86.916 14.800 C 73.868 16.066,70.958 20.818,82.243 22.430 L 88.785 23.364 89.280 81.181 C 89.813 143.454,90.041 141.971,79.907 142.027 C 76.596 142.046,74.766 143.054,74.766 144.860 C 74.766 147.189,78.401 147.664,96.262 147.664 C 114.123 147.664,117.757 147.189,117.757 144.860 C 117.757 143.137,116.007 142.056,113.218 142.056 C 102.885 142.056,102.804 141.529,102.804 74.633 C 102.804 26.472,102.296 13.152,100.467 13.398 C 99.182 13.571,93.084 14.202,86.916 14.800 M139.386 21.629 C 134.970 26.045,135.747 33.099,141.030 36.561 C 146.858 40.379,152.912 38.571,155.297 32.298 C 159.080 22.347,146.861 14.153,139.386 21.629 M140.654 63.066 C 127.103 63.836,122.810 70.197,135.047 71.377 L 141.121 71.963 141.633 105.470 C 142.185 141.591,142.087 141.973,132.243 142.027 C 128.933 142.046,127.103 143.054,127.103 144.860 C 127.103 147.189,130.737 147.664,148.598 147.664 C 166.459 147.664,170.093 147.189,170.093 144.860 C 170.093 143.272,168.418 142.056,166.232 142.056 C 155.280 142.056,155.140 141.525,155.140 99.934 C 155.140 78.896,154.509 61.844,153.738 62.042 C 152.967 62.240,147.079 62.701,140.654 63.066 M193.458 63.398 C 180.410 64.664,177.500 69.416,188.785 71.028 L 195.327 71.963 195.839 105.470 C 196.391 141.591,196.292 141.973,186.449 142.027 C 183.138 142.046,181.308 143.054,181.308 144.860 C 181.308 147.196,185.047 147.664,203.738 147.664 C 222.430 147.664,226.168 147.196,226.168 144.860 C 226.168 143.141,224.420 142.056,221.648 142.056 C 211.301 142.056,211.215 141.822,211.215 113.744 C 211.215 78.768,217.323 67.234,235.802 67.318 C 248.952 67.379,250.467 71.604,250.467 108.223 C 250.467 140.647,250.005 142.056,239.375 142.056 C 237.189 142.056,235.514 143.272,235.514 144.860 C 235.514 147.189,239.148 147.664,257.009 147.664 C 274.870 147.664,278.505 147.189,278.505 144.860 C 278.505 143.137,276.754 142.056,273.965 142.056 C 256.829 142.056,259.570 81.698,277.194 70.952 C 297.323 58.678,303.567 66.768,304.373 106.170 C 305.063 139.934,304.452 142.056,294.035 142.056 C 291.445 142.056,289.720 143.177,289.720 144.860 C 289.720 147.189,293.354 147.664,311.215 147.664 C 329.076 147.664,332.710 147.189,332.710 144.860 C 332.710 143.272,331.035 142.056,328.849 142.056 C 318.317 142.056,317.757 140.447,317.757 110.155 C 317.757 79.760,315.948 71.625,308.100 66.728 C 296.319 59.378,279.519 61.840,269.585 72.373 C 266.171 75.993,263.207 78.643,262.998 78.262 C 262.788 77.882,261.711 75.930,260.603 73.926 C 251.901 58.176,225.171 58.976,213.551 75.335 L 209.346 81.256 209.346 71.469 C 209.346 64.718,208.621 61.780,207.009 61.996 C 205.724 62.169,199.626 62.800,193.458 63.398 M197.320 198.598 C 200.382 208.428,202.058 211.413,208.545 218.594 L 215.388 226.168 158.959 226.168 C 106.223 226.168,102.571 226.382,103.159 229.439 C 103.739 232.453,108.139 232.749,159.160 233.205 L 214.533 233.700 208.874 239.747 C 203.743 245.232,196.262 259.443,196.262 263.706 C 196.262 268.780,202.222 264.228,205.611 256.565 C 210.661 245.150,215.597 239.982,226.984 234.186 L 236.212 229.490 226.377 224.816 C 215.820 219.798,206.731 209.373,204.649 199.892 C 203.806 196.055,202.318 194.393,199.726 194.393 C 196.730 194.393,196.264 195.208,197.320 198.598 M28.488 207.467 C 23.039 210.789,14.979 221.097,14.960 224.766 C 14.943 228.217,18.649 225.614,22.114 219.742 C 29.161 207.798,46.664 204.037,46.759 214.446 C 46.929 233.099,34.382 261.682,26.024 261.682 C 22.023 261.682,19.699 258.697,22.399 257.028 C 25.299 255.236,24.661 248.620,21.472 247.396 C 17.225 245.766,12.820 250.440,13.457 255.901 C 14.583 265.562,29.308 267.888,37.497 259.699 C 40.961 256.236,41.492 256.178,44.282 258.968 C 54.786 269.472,80.374 260.751,80.374 246.667 C 80.374 241.047,77.669 242.276,74.248 249.448 C 67.665 263.253,50.431 265.039,50.499 251.909 C 50.592 234.208,60.282 210.238,68.142 208.265 C 74.434 206.686,77.407 208.842,73.846 212.402 C 70.331 215.918,70.302 217.632,73.712 220.462 C 77.595 223.684,84.112 219.749,84.112 214.182 C 84.112 204.454,69.311 200.571,60.646 208.025 L 55.217 212.695 49.895 208.216 C 43.422 202.770,36.584 202.530,28.488 207.467 M276.636 205.738 C 250.729 216.623,252.216 256.473,278.796 263.630 C 289.915 266.624,301.275 262.804,312.929 252.153 L 322.800 243.131 328.222 248.835 C 353.044 274.945,389.703 266.461,389.537 234.645 C 389.378 203.926,358.939 194.030,334.188 216.651 L 324.248 225.736 317.302 218.706 C 305.461 206.723,287.743 201.072,276.636 205.738 M374.088 212.282 C 387.167 219.046,390.028 239.591,379.374 250.245 C 367.627 261.992,354.941 259.613,339.310 242.729 L 328.894 231.478 334.544 224.344 C 344.944 211.213,361.975 206.018,374.088 212.282 M296.256 215.786 C 300.545 218.299,307.217 224.215,311.081 228.931 L 318.107 237.505 313.299 243.809 C 294.810 268.050,261.815 262.331,261.710 234.868 C 261.636 215.713,279.394 205.904,296.256 215.786 " stroke="none" fill="#000000" fill-rule="evenodd"></path></g></svg>