<svg id="svg" xmlns="http://www.w3.org/2000/svg" xmlns:xlink="http://www.w3.org/1999/xlink" width="400" height="286.10169491525426" viewBox="0, 0, 400,286.10169491525426"><g id="svgg"><path id="path0" d="M9.492 142.373 L 9.492 279.322 19.661 279.322 C 27.797 279.322,29.831 278.915,29.831 277.288 C 29.831 275.727,28.098 275.254,22.373 275.254 L 14.915 275.254 14.915 142.373 L 14.915 9.492 22.373 9.492 C 28.098 9.492,29.831 9.019,29.831 7.458 C 29.831 5.831,27.797 5.424,19.661 5.424 L 9.492 5.424 9.492 142.373 M372.881 7.458 C 372.881 9.019,374.614 9.492,380.339 9.492 L 387.797 9.492 387.797 142.373 L 387.797 275.254 380.339 275.254 C 374.614 275.254,372.881 275.727,372.881 277.288 C 372.881 278.915,374.915 279.322,383.051 279.322 L 393.220 279.322 393.220 142.373 L 393.220 5.424 383.051 5.424 C 374.915 5.424,372.881 5.831,372.881 7.458 M69.831 18.284 C 67.593 19.270,65.305 19.795,64.746 19.450 C 64.186 19.105,63.729 19.535,63.729 20.406 C 63.729 21.417,64.953 21.682,67.119 21.138 L 70.508 20.287 70.508 35.906 L 70.508 51.525 67.119 51.525 C 65.254 51.525,63.729 52.136,63.729 52.881 C 63.729 53.657,67.823 54.237,73.300 54.237 C 79.336 54.237,82.562 53.736,82.034 52.881 C 81.573 52.136,80.012 51.525,78.564 51.525 C 76.094 51.525,75.932 50.443,75.932 33.898 C 75.932 24.203,75.475 16.321,74.915 16.381 C 74.356 16.442,72.068 17.298,69.831 18.284 M150.676 19.756 C 143.280 29.159,146.445 52.583,155.415 54.835 C 167.348 57.829,175.265 36.792,167.706 22.175 C 164.064 15.132,155.293 13.886,150.676 19.756 M238.955 17.179 C 233.070 19.546,230.362 42.215,235.099 49.445 C 242.207 60.293,253.803 55.953,255.755 41.713 C 258.169 24.097,250.305 12.612,238.955 17.179 M322.631 19.747 C 315.708 27.116,317.961 50.775,325.931 54.406 C 335.680 58.848,342.021 50.638,341.423 34.346 C 340.809 17.595,331.469 10.339,322.631 19.747 M163.491 20.981 C 166.850 26.107,165.817 49.608,162.114 52.314 C 155.283 57.305,151.864 51.941,151.864 36.234 C 151.864 19.117,157.460 11.776,163.491 20.981 M248.368 19.871 C 252.197 23.336,252.018 47.643,248.136 51.525 C 241.041 58.620,236.660 50.903,237.484 32.762 C 238.124 18.670,241.986 14.096,248.368 19.871 M334.043 19.660 C 339.027 24.644,338.121 48.847,332.818 52.362 C 326.547 56.520,324.068 51.871,324.068 35.952 C 324.068 19.009,327.609 13.226,334.043 19.660 M68.075 85.488 C 58.012 89.527,58.764 119.565,69.018 123.140 C 78.301 126.376,84.068 119.103,84.068 104.161 C 84.068 88.927,77.785 81.591,68.075 85.488 M238.037 87.119 C 231.284 93.056,230.777 114.769,237.240 121.232 C 243.033 127.025,252.346 123.229,254.900 114.034 C 260.232 94.840,249.229 77.279,238.037 87.119 M325.702 85.488 C 315.639 89.527,316.392 119.565,326.646 123.140 C 335.928 126.376,341.695 119.103,341.695 104.161 C 341.695 88.927,335.412 81.591,325.702 85.488 M153.898 87.432 L 148.475 89.155 152.542 89.662 L 156.610 90.169 156.610 105.071 L 156.610 119.973 152.542 120.843 C 150.057 121.375,152.430 121.696,158.644 121.670 C 164.237 121.647,167.136 121.373,165.085 121.063 L 161.356 120.498 161.356 102.961 C 161.356 93.315,160.898 85.488,160.339 85.566 C 159.780 85.644,156.881 86.484,153.898 87.432 M77.461 89.022 C 79.901 91.962,79.967 114.673,77.549 118.983 C 75.410 122.795,69.788 123.043,67.844 119.411 C 65.845 115.676,66.027 90.448,68.068 88.407 C 70.396 86.079,75.284 86.399,77.461 89.022 M249.444 89.402 C 251.844 93.886,251.229 117.391,248.645 119.975 C 242.297 126.323,237.337 119.198,237.308 103.692 C 237.281 88.954,244.595 80.343,249.444 89.402 M335.071 89.002 C 337.492 91.918,337.565 114.692,335.168 118.983 C 333.039 122.795,327.415 123.044,325.471 119.411 C 323.472 115.676,323.654 90.448,325.695 88.407 C 328.016 86.086,332.909 86.396,335.071 89.002 M64.987 156.714 C 57.868 164.293,60.192 187.659,68.440 191.417 C 78.052 195.797,84.390 187.491,83.796 171.295 C 83.181 154.528,73.842 147.288,64.987 156.714 M151.281 156.393 C 142.439 165.234,146.880 192.542,157.160 192.542 C 165.992 192.542,170.096 186.038,169.970 172.241 C 169.816 155.493,160.273 147.400,151.281 156.393 M240.000 156.231 C 234.789 158.292,234.492 158.595,237.966 158.305 L 242.034 157.966 242.417 173.220 L 242.801 188.475 239.366 188.475 C 237.478 188.475,235.932 189.085,235.932 189.831 C 235.932 190.595,239.774 191.186,244.746 191.186 C 249.718 191.186,253.559 190.595,253.559 189.831 C 253.559 189.085,252.052 188.475,250.209 188.475 L 246.858 188.475 246.480 171.146 L 246.102 153.817 240.000 156.231 M322.631 156.696 C 315.708 164.065,317.961 187.724,325.931 191.355 C 335.680 195.798,342.021 187.588,341.423 171.295 C 340.809 154.544,331.469 147.288,322.631 156.696 M76.381 156.575 C 81.588 161.782,80.619 185.762,75.054 189.409 C 68.711 193.565,66.441 189.179,66.441 172.768 C 66.441 155.999,70.003 150.196,76.381 156.575 M163.491 157.930 C 166.850 163.056,165.817 186.557,162.114 189.263 C 155.283 194.254,151.864 188.890,151.864 173.183 C 151.864 156.066,157.460 148.725,163.491 157.930 M334.043 156.609 C 336.139 158.706,337.936 170.283,337.094 176.271 C 336.832 178.136,336.539 181.325,336.444 183.359 C 336.182 188.961,330.378 192.409,326.745 189.121 C 323.145 185.863,322.713 160.193,326.199 156.707 C 328.875 154.031,331.432 153.999,334.043 156.609 M68.075 222.437 C 56.009 227.280,59.476 260.339,72.050 260.339 C 80.792 260.339,84.068 255.097,84.068 241.110 C 84.068 225.876,77.785 218.541,68.075 222.437 M151.876 224.864 C 147.460 229.281,145.610 237.872,147.033 247.362 C 149.632 264.688,166.489 265.601,169.668 248.588 C 173.329 228.991,162.367 214.374,151.876 224.864 M238.037 224.068 C 233.499 228.057,231.421 238.649,233.267 248.380 C 236.854 267.295,254.087 264.175,255.891 244.284 C 257.485 226.695,247.679 215.591,238.037 224.068 M325.424 224.492 C 320.852 226.222,320.815 226.290,324.407 226.364 L 328.136 226.441 328.136 241.944 L 328.136 257.447 324.407 258.012 C 322.356 258.323,325.254 258.577,330.847 258.577 C 336.441 258.577,339.339 258.323,337.288 258.012 L 333.559 257.447 333.559 239.910 C 333.559 220.809,333.825 221.313,325.424 224.492 M77.461 225.972 C 80.031 229.069,80.007 253.673,77.432 256.776 C 74.930 259.791,69.556 259.558,67.844 256.360 C 65.845 252.625,66.027 227.397,68.068 225.356 C 70.396 223.028,75.285 223.349,77.461 225.972 M163.850 227.182 C 168.100 236.509,164.866 257.887,159.080 258.721 C 152.783 259.629,148.431 235.390,153.268 226.352 C 155.406 222.356,161.883 222.865,163.850 227.182 M249.444 226.352 C 252.115 231.342,251.212 254.165,248.236 256.858 C 241.704 262.770,237.337 256.289,237.308 240.641 C 237.281 225.904,244.595 217.292,249.444 226.352 " stroke="none" fill="#000000" fill-rule="evenodd"></path></g></svg>