<svg id="svg" xmlns="http://www.w3.org/2000/svg" xmlns:xlink="http://www.w3.org/1999/xlink" width="400" height="688.8888888888888" viewBox="0, 0, 400,688.8888888888888"><g id="svgg"><path id="path0" d="M8.648 12.347 C -5.358 32.344,-4.344 660.102,9.722 677.372 C 18.867 688.600,23.560 689.214,88.764 687.710 C 167.102 685.903,172.870 682.033,164.413 636.953 L 160.608 616.667 127.526 616.667 L 94.444 616.667 94.444 344.444 L 94.444 72.222 124.805 72.222 C 163.798 72.222,179.506 45.482,160.916 10.746 C 151.507 -6.835,21.124 -5.464,8.648 12.347 M235.826 19.010 C 227.765 61.980,235.390 72.222,275.441 72.222 L 311.111 72.222 311.111 344.444 L 311.111 616.667 275.252 616.667 L 239.392 616.667 235.826 635.677 C 233.865 646.132,233.950 662.382,236.016 671.788 L 239.772 688.889 310.691 688.889 C 410.809 688.889,400.000 730.693,400.000 343.479 C 400.000 -42.308,411.143 -0.000,309.537 -0.000 L 239.392 -0.000 235.826 19.010 " stroke="none" fill="#000000" fill-rule="evenodd"></path></g></svg>