<svg id="svg" xmlns="http://www.w3.org/2000/svg" xmlns:xlink="http://www.w3.org/1999/xlink" width="400" height="404.58015267175574" viewBox="0, 0, 400,404.58015267175574"><g id="svgg"><path id="path0" d="M259.696 18.714 C 256.002 28.434,249.291 46.005,244.783 57.761 C 240.275 69.517,234.747 83.944,232.498 89.822 C 223.931 112.215,193.275 192.196,186.270 210.433 C 183.797 216.870,178.180 231.527,173.789 243.003 C 169.397 254.478,162.642 272.112,158.777 282.188 C 154.912 292.265,148.377 309.326,144.255 320.102 C 140.132 330.878,136.600 339.873,136.405 340.092 C 136.097 340.437,127.773 323.531,87.721 241.221 C 83.295 232.125,77.377 220.102,74.569 214.504 L 69.466 204.326 34.733 204.195 L -0.000 204.064 -0.000 224.424 L 0.000 244.784 22.018 244.784 L 44.036 244.784 52.405 261.959 C 57.008 271.406,64.187 286.120,68.360 294.656 C 72.532 303.193,79.844 318.193,84.608 327.990 C 100.395 360.455,117.727 395.916,120.176 400.763 L 121.976 404.326 138.653 404.326 L 155.330 404.326 156.018 402.545 C 156.397 401.565,161.655 387.824,167.704 372.010 C 173.752 356.196,179.460 341.310,180.387 338.931 C 181.315 336.552,183.343 331.285,184.894 327.226 C 186.446 323.168,192.289 307.939,197.880 293.384 C 203.471 278.830,213.929 251.578,221.120 232.824 C 228.311 214.071,236.441 192.888,239.188 185.751 C 241.935 178.613,248.922 160.407,254.715 145.293 C 260.509 130.178,269.208 107.506,274.047 94.911 C 281.658 75.100,289.483 54.670,293.291 44.664 L 294.402 41.745 347.201 41.738 L 400.000 41.730 400.000 21.374 L 400.000 1.018 333.206 1.029 L 266.412 1.040 259.696 18.714 " stroke="none" fill="#000000" fill-rule="evenodd"></path></g></svg>