<svg id="svg" xmlns="http://www.w3.org/2000/svg" xmlns:xlink="http://www.w3.org/1999/xlink" width="400" height="418.6046511627907" viewBox="0, 0, 400,418.6046511627907"><g id="svgg"><path id="path0" d="M255.490 35.243 C 252.114 44.127,245.980 60.186,241.860 70.930 C 237.740 81.674,232.687 94.860,230.632 100.233 C 222.802 120.699,194.784 193.798,188.381 210.465 C 186.121 216.349,180.988 229.744,176.974 240.233 C 172.961 250.721,166.787 266.837,163.254 276.047 C 159.722 285.256,153.749 300.849,149.982 310.698 C 146.214 320.547,142.986 328.768,142.808 328.968 C 142.526 329.283,134.918 313.832,98.313 238.605 C 94.267 230.291,88.858 219.302,86.293 214.186 L 81.628 204.884 48.023 204.764 L 14.419 204.645 14.419 223.253 L 14.419 241.860 36.403 241.860 L 58.387 241.860 66.035 257.558 C 70.242 266.192,76.906 279.849,80.845 287.907 C 84.783 295.965,91.206 309.151,95.118 317.209 C 99.029 325.267,105.455 338.453,109.398 346.512 C 113.341 354.570,118.752 365.651,121.423 371.136 C 124.094 376.622,127.345 383.215,128.649 385.787 L 131.018 390.465 144.968 390.588 L 158.918 390.711 160.136 387.565 C 160.806 385.834,165.879 372.593,171.409 358.140 C 176.939 343.686,182.158 330.081,183.005 327.907 C 183.853 325.733,185.706 320.919,187.124 317.209 C 188.542 313.500,193.883 299.581,198.993 286.279 C 204.102 272.977,213.660 248.070,220.233 230.930 C 226.805 213.791,234.236 194.430,236.746 187.907 C 239.257 181.384,245.643 164.744,250.938 150.930 C 256.232 137.116,264.183 116.395,268.606 104.884 C 275.562 86.778,282.713 68.106,286.194 58.960 L 287.209 56.293 336.628 56.286 L 386.047 56.279 386.047 37.674 L 386.047 19.070 323.837 19.080 L 261.628 19.090 255.490 35.243 " stroke="none" fill="#000000" fill-rule="evenodd"></path></g></svg>