<svg id="svg" xmlns="http://www.w3.org/2000/svg" xmlns:xlink="http://www.w3.org/1999/xlink" width="400" height="459.25925925925924" viewBox="0, 0, 400,459.25925925925924"><g id="svgg"><path id="path0" d="M0.000 10.246 C 0.000 15.881,24.666 65.827,54.814 121.237 L 109.629 221.983 54.814 320.539 C 9.956 401.194,0.000 422.773,0.000 439.344 L 0.000 459.593 53.086 458.192 L 106.173 456.790 147.969 376.543 C 170.957 332.407,190.957 296.306,192.414 296.317 C 193.870 296.328,209.995 325.773,228.246 361.749 C 246.498 397.725,265.910 434.383,271.384 443.210 L 281.336 459.259 340.668 459.259 L 400.000 459.259 400.000 442.752 C 400.000 431.022,383.593 396.204,343.303 322.428 L 286.605 218.611 343.303 114.260 C 374.486 56.867,400.000 7.609,400.000 4.798 C 400.000 1.487,379.664 0.177,342.277 1.078 L 284.553 2.469 247.215 72.463 C 226.679 110.960,208.442 143.877,206.688 145.611 C 204.934 147.346,186.045 115.308,164.712 74.416 L 125.926 0.068 62.963 0.034 C 2.525 0.001,0.000 0.411,0.000 10.246 " stroke="none" fill="#000000" fill-rule="evenodd"></path></g></svg>