<svg id="svg" xmlns="http://www.w3.org/2000/svg" xmlns:xlink="http://www.w3.org/1999/xlink" width="400" height="340" viewBox="0, 0, 400,340"><g id="svgg"><path id="path0" d="M28.077 111.500 C 28.119 112.325,31.044 114.800,34.577 117.000 C 40.596 120.748,71.722 164.243,71.915 169.174 C 72.210 176.721,45.736 207.268,34.500 212.346 C 20.863 218.509,24.077 220.000,51.000 220.000 C 77.253 220.000,79.760 219.154,69.987 213.593 C 62.071 209.088,62.025 199.181,69.849 184.063 L 75.510 173.126 85.755 188.820 C 97.326 206.544,98.661 213.256,91.000 215.179 C 78.172 218.398,89.134 220.000,124.000 220.000 C 163.043 220.000,166.168 219.386,156.140 213.681 C 147.384 208.699,109.305 151.029,111.761 146.468 C 112.788 144.561,120.366 136.475,128.601 128.500 C 153.585 104.305,154.390 104.922,186.714 173.035 C 213.293 229.043,211.778 223.236,204.066 239.537 C 198.154 252.033,192.141 257.422,190.293 251.879 C 183.667 232.000,155.091 235.345,155.091 256.000 C 155.091 267.557,162.389 274.000,175.479 274.000 C 191.502 274.000,199.079 263.822,222.707 210.557 C 256.243 134.956,276.798 114.000,317.420 114.000 C 326.070 114.000,328.336 109.508,291.423 165.545 C 273.505 192.745,258.143 216.140,257.284 217.533 C 256.036 219.558,266.457 219.959,309.213 219.533 L 362.703 219.000 367.195 198.000 C 374.017 166.100,374.032 166.000,371.991 166.000 C 370.941 166.000,368.143 169.825,365.775 174.500 C 354.321 197.104,338.478 208.885,311.500 214.858 C 303.177 216.701,303.597 215.897,339.000 162.240 C 357.150 134.731,372.000 111.723,372.000 111.112 C 372.000 110.500,340.500 110.000,302.000 110.000 C 234.629 110.000,226.215 110.722,236.892 115.587 C 247.903 120.604,247.962 140.406,237.039 165.104 C 230.918 178.945,231.958 179.818,218.725 149.738 C 207.553 124.345,205.955 117.213,211.000 115.277 C 221.744 111.154,210.372 110.000,159.000 110.000 C 108.163 110.000,96.030 111.201,108.115 115.036 C 115.036 117.233,116.599 125.070,112.129 135.174 C 107.261 146.180,107.731 146.274,99.154 132.563 C 90.931 119.416,90.454 116.760,96.000 115.000 C 106.955 111.523,97.206 110.000,64.000 110.000 C 44.200 110.000,28.035 110.675,28.077 111.500 " stroke="none" fill="#000000" fill-rule="evenodd"></path></g></svg>